<svg version="1.0" xmlns="http://www.w3.org/2000/svg"
 width="512.000000pt" height="512.000000pt" viewBox="0 0 512.000000 512.000000"
 preserveAspectRatio="xMidYMid meet">
<g transform="translate(0.000000,512.000000) scale(0.100000,-0.100000)"
fill="#000000" stroke="none">
<path d="M958 4493 c110 -115 586 -593 1056 -1063 471 -470 856 -859 856 -865
0 -5 -475 -485 -1057 -1067 l-1056 -1056 64 -6 c223 -19 602 -27 1152 -24
l617 3 1040 1040 c765 765 1043 1050 1055 1079 l17 39 -1064 1064 -1063 1063
-909 0 -908 0 200 -207z m87 183 c83 -1 449 -3 815 -4 494 -2 671 -6 687 -15
56 -31 328 -296 1148 -1119 490 -491 910 -915 933 -942 l44 -49 -1054 -1053
-1053 -1054 -865 0 -865 0 33 21 c34 22 42 39 18 39 -8 0 -18 5 -22 11 -3 6
427 445 1010 1028 559 560 1016 1022 1016 1027 0 5 -437 446 -971 979 -819
819 -974 978 -994 1022 -26 59 -53 88 -98 109 -32 15 -32 15 18 8 28 -4 118
-8 200 -8z"/>
</g>
</svg>